<?xml version="1.0" encoding="utf-8"?>
<!-- Generator: Adobe Illustrator 23.0.0, SVG Export Plug-In . SVG Version: 6.00 Build 0)  -->
<svg version="1.1" id="图层_1" xmlns="http://www.w3.org/2000/svg" xmlns:xlink="http://www.w3.org/1999/xlink" x="0px" y="0px"
	 viewBox="0 0 200 200" style="enable-background:new 0 0 200 200;" xml:space="preserve">
<path class="st0" d="M97.7,78.5v19.2h5.6c7.6,0,11.4-3.2,11.4-9.7c0-6.3-3.8-9.5-11.3-9.5H97.7z M173.1,53.6V14.3
	c0-7.9-6.5-14.3-14.6-14.3H41.8c-8,0-14.6,6.4-14.6,14.3v39.3H5.7c-3.1,0-5.7,2.5-5.7,5.7v78c0,3.1,2.5,5.7,5.7,5.7h21.5v42.9
	c0,7.9,6.5,14.3,14.6,14.3h116.7c8.1,0,14.6-6.4,14.6-14.3v-42.9h21.3c3.1,0,5.7-2.5,5.7-5.7v-78c0-3.1-2.5-5.7-5.7-5.7L173.1,53.6
	L173.1,53.6z M158.5,17.9v35.7H41.8V17.9H158.5L158.5,17.9z M128.3,87.4c0,6.1-2.3,11-6.8,14.6c-4.6,3.7-10.3,5.4-17.1,5.3h-6.7
	v20.7H84.8V68.6h20.9C120.7,68.6,128.3,74.9,128.3,87.4z M34.7,114.4l-4.5,13.6h-14l22.2-59.4h15.2l21.8,59.4H61.3l-4.5-13.6H34.7z
	 M100.1,192.9c-3.9-0.1-7.1-3.3-7-7.2c0.1-3.9,3.3-7.1,7.2-7c3.9,0,7.1,3.2,7.1,7.1C107.4,189.7,104.1,192.9,100.1,192.9z
	 M158.5,171.4H41.8v-28.6h116.7L158.5,171.4L158.5,171.4z M172.5,102.1c-4.6,3.7-10.3,5.4-17.1,5.3h-6.7v20.7h-12.9V68.6h20.9
	c15.1,0,22.6,6.3,22.6,18.8C179.3,93.5,177,98.4,172.5,102.1L172.5,102.1L172.5,102.1z M154.4,78.4h-5.7v19.2h5.6
	c7.6,0,11.4-3.2,11.4-9.7C165.7,81.6,162,78.4,154.4,78.4L154.4,78.4z M45.9,78.9h-0.4c-0.2,1.7-0.5,3.4-1.1,5l-6.9,20.8h16.2
	l-6.9-20.6C46.3,82.4,46,80.6,45.9,78.9C45.9,78.9,45.9,78.9,45.9,78.9z"/>
</svg>
