<?xml version="1.0" encoding="utf-8"?>
<!-- Generator: Adobe Illustrator 23.0.0, SVG Export Plug-In . SVG Version: 6.00 Build 0)  -->
<svg version="1.1" id="图层_1" xmlns="http://www.w3.org/2000/svg" xmlns:xlink="http://www.w3.org/1999/xlink" x="0px" y="0px"
	 viewBox="0 0 200 200" style="enable-background:new 0 0 200 200;" xml:space="preserve">
<path class="st0" d="M182.6,173.2c2.6,2.2,6.2,5.4,11,9.6c1.6,1.7,3.3,3.2,5.2,4.5l-10,8.3c-6.9-6.4-12.4-11.5-16.5-15.7l8.7-6.7
	h-22.4l10,6.5c-1.5,1.6-3.6,3.8-6.1,6.4c-4.3,4.5-7.7,8-10,10.2l-10-8.3c5-4.1,9.6-8.6,13.9-13.5l1.2-1.2H143v-11.4h10.2v-14.4h-8.4
	v-11.4h8.4v-13.5h12.6v13.5h10.4v-13.5h12.6v13.5h8.4v11.4h-8.4v14.4h10.4v11.4H182.6L182.6,173.2z M176.1,147.5h-10.4v14.4h10.4
	V147.5z M100.7,158.9c0,10.8,3.2,21.3,9.2,30.3l-0.9,1H25.9C12.1,190.5,0.6,179.6,0.3,166c0,0,0-0.1,0-0.1V24.3
	C0.6,10.6,12.1-0.3,25.9,0h126.5c13.9-0.3,25.3,10.6,25.6,24.3v80.1c-5.7-1.5-11.5-2.3-17.4-2.3
	C128.2,101.4,101.4,126.8,100.7,158.9L100.7,158.9z M113.7,46.6c0,0-24.7,6.5-29.3-15.9H70.1C68.1,42.1,57,49.8,45.4,47.8
	c-1.5-0.3-3-0.7-4.4-1.3c-7.3,11.5-7.5,11.9-7.5,11.9c8.6,5.3,11.3,16.5,5.9,25c-1.5,2.4-3.5,4.4-5.9,5.8l7.7,12
	c10.6-4.5,22.9,0.2,27.5,10.7c0.7,1.5,1.2,3.1,1.4,4.8h14.5c2.3-11.6,13.6-19.1,25.4-16.9c1.3,0.2,2.5,0.6,3.7,1.1
	c7-11.3,7.1-11.4,7.1-11.4c-8.7-6.5-10.5-18.7-4-27.3c1.1-1.5,2.5-2.9,4.1-4C113.6,46.7,113.7,46.6,113.7,46.6L113.7,46.6z M77,89.4
	c-8.9-0.3-15.8-7.7-15.4-16.4c0.3-8.7,7.8-15.6,16.7-15.2c8.6,0.3,15.4,7.3,15.4,15.8C93.5,82.5,86,89.6,77,89.4z M147,125.4
	c-1.8,5.3-4,10.5-6.5,15.6V196h-12.6v-32.6c-1.7,2.5-3.6,4.9-5.5,7.4c-0.3-2.4-0.5-4.7-0.7-7.1c-0.6-4.9-1.1-8.5-1.2-10.7
	c6.1-9.5,10.6-19.9,13.3-30.8L147,125.4z"/>
</svg>
