<?xml version="1.0" encoding="utf-8"?>
<!-- Generator: Adobe Illustrator 23.0.0, SVG Export Plug-In . SVG Version: 6.00 Build 0)  -->
<svg version="1.1" id="图层_1" xmlns="http://www.w3.org/2000/svg" xmlns:xlink="http://www.w3.org/1999/xlink" x="0px" y="0px"
	 viewBox="0 0 200 200" style="enable-background:new 0 0 200 200;" xml:space="preserve">
<path class="st0" d="M70.8,10.3H17.7c-9.3,0-17.2,8-17.2,17.2v54.4c0,9.3,8,17.2,17.2,17.2h54.4c9.3,0,17.2-8,17.2-17.2V27.5
	C88.1,18.2,80.1,10.3,70.8,10.3z M194.2,43.4L155.7,5c-6.6-6.6-17.2-6.6-23.9,0L94.7,43.4c-6.6,5.3-6.6,15.9,0,22.6l38.5,38.5
	c6.6,6.6,17.2,6.6,23.9,0L195.5,66C200.8,59.4,200.8,48.8,194.2,43.4L194.2,43.4z M150.4,93.9c-2.7,2.7-8,2.7-10.6,0l-34.5-34.5
	c-2.7-2.7-2.7-8,0-10.6l34.5-33.2c2.7-2.7,8-2.7,10.6,0l34.5,34.5c2.7,2.7,2.7,8,0,10.6L150.4,93.9L150.4,93.9z M70.8,111.1H17.7
	c-9.3,0-17.2,8-17.2,17.2v54.4c0,9.3,8,17.2,17.2,17.2h54.4c9.3,0,17.2-8,17.2-17.2v-54.4C88.1,119.1,80.1,111.1,70.8,111.1z
	 M171.6,111.1h-54.4c-9.3,0-17.2,8-17.2,17.2v54.4c0,9.3,8,17.2,17.2,17.2h54.4c9.3,0,17.2-8,17.2-17.2v-54.4
	C188.9,119.1,180.9,111.1,171.6,111.1z"/>
</svg>
