<?xml version="1.0" encoding="utf-8"?>
<!-- Generator: Adobe Illustrator 23.0.0, SVG Export Plug-In . SVG Version: 6.00 Build 0)  -->
<svg version="1.1" id="图层_1" xmlns="http://www.w3.org/2000/svg" xmlns:xlink="http://www.w3.org/1999/xlink" x="0px" y="0px"
	 viewBox="0 0 200 200" style="enable-background:new 0 0 200 200;" xml:space="preserve">
<path class="st0" d="M111.1,4.3c-6.1-5.5-15.4-5.5-21.5,0L2.5,87C-0.8,90-1,95.1,2,98.3c3,3.2,8,3.5,11.2,0.6l1.4-1.3v86.3
	c0,8.9,7.2,16.1,16,16.1c0,0,0,0,0,0h46.8v-48.4c0-6.2,5.1-11.3,11.3-11.3c0,0,0,0,0,0h22c6.2,0,11.3,5.1,11.3,11.3c0,0,0,0,0,0V200
	H170c8.9,0,16.1-7.2,16.1-16.1c0,0,0,0,0,0V98.6c3.6,3.2,8.6,3,11.6-0.3c3-3.3,2.7-8.4-0.6-11.3c0,0,0,0,0,0L111.1,4.3L111.1,4.3z"
	/>
</svg>
