<?xml version="1.0" encoding="utf-8"?>
<!-- Generator: Adobe Illustrator 23.0.0, SVG Export Plug-In . SVG Version: 6.00 Build 0)  -->
<svg version="1.1" id="图层_1" xmlns="http://www.w3.org/2000/svg" xmlns:xlink="http://www.w3.org/1999/xlink" x="0px" y="0px"
	 viewBox="0 0 200 200" style="enable-background:new 0 0 200 200;" xml:space="preserve">
<path class="st0" d="M121.2,0H76.9c-5.4,0-9.8,4.8-9.8,10.7c0,5.9,4.4,10.7,9.8,10.7h44.6c5.2,0,9.5-4.8,9.5-10.7
	C131,4.8,126.7,0,121.2,0z M169.4,7.1h-22.1c0.2,1.2,0.4,2.4,0.4,3.6c0,9-6.6,17.9-14.5,17.9H65.3c-8.3,0-14.9-8.9-14.9-17.9
	c0-1.2,0.1-2.4,0.4-3.6H28.4c-18,0-22.4,10.1-22.4,24.6v143.9c0,15.6,6.3,24.3,23.7,24.3H168c17.4,0,25.9-6.8,25.9-24.3V31.7
	C193.9,17.2,186,7.1,169.4,7.1L169.4,7.1z M146.7,149.2H50.6c-3.5,0-7.1-4.3-7.1-7.8c0-3.5,3-6.5,6.5-6.5h95.8
	c3.5,0,6.5,2.7,6.8,6.5C152.7,144.9,150.2,149.2,146.7,149.2L146.7,149.2z M147.1,111.1H51c-3.5,0-5.8-3.8-5.8-7.3s3-7,6.5-7h95.8
	c3.5,0,6.5,3.3,6.8,7C154.4,107.4,150.6,111.1,147.1,111.1L147.1,111.1z M147.1,72H51c-3.5,0-5.8-3.8-5.8-7.3c0-3.5,3-7,6.5-7h95.8
	c3.5,0,6.5,3.2,6.8,7C154.4,68.2,150.6,72,147.1,72L147.1,72z"/>
</svg>
