<?xml version="1.0" encoding="utf-8"?>
<!-- Generator: Adobe Illustrator 23.0.0, SVG Export Plug-In . SVG Version: 6.00 Build 0)  -->
<svg version="1.1" id="图层_1" xmlns="http://www.w3.org/2000/svg" xmlns:xlink="http://www.w3.org/1999/xlink" x="0px" y="0px"
	 viewBox="0 0 215.2 200" style="enable-background:new 0 0 215.2 200;" xml:space="preserve">
<path class="st0" d="M199.2,39.7H16.2c-4.3,0-8.4,1.7-11.4,4.8C1.7,47.6,0,51.7,0,56.1v127.6c0,9,7.2,16.3,16.2,16.3h183.1
	c8.9,0,16.2-7.3,16.2-16.3V56.1c0-4.3-1.7-8.5-4.7-11.6C207.7,41.4,203.5,39.7,199.2,39.7L199.2,39.7z M136.1,110.4
	c5.1,0,7.6,2.6,7.6,7.7c0,5.2-2.5,7.6-7.6,7.6h-19.3v7h19.3c5.1,0,7.6,2.6,7.6,7.7c0,5.1-2.6,7.6-7.6,7.6h-19.3v16
	c0,3.6-0.5,6-1.5,7.2c-1,1.2-3.2,1.8-6.6,1.8c-2.2,0.2-4.5-0.4-6.2-1.8c-1.3-1.2-1.9-3.6-1.9-7.2V148H81.6c-5.1,0-7.7-2.5-7.7-7.6
	s2.5-7.7,7.4-7.7h19.3v-6.9h-19c-5.1,0-7.7-2.5-7.7-7.6c0-5.1,2.5-7.7,7.4-7.7h10.8l-8.3-13.7L75.5,83c-1.3-1.8-1.9-4.1-1.6-6.3
	c0.5-1.9,1.7-3.6,3.4-4.7c1.6-1.3,3.7-2,5.8-1.8c1.8,0.3,3.5,1.8,5.1,4.6l20.8,35c3.4-5.8,6.7-11.6,10.1-17.3l10-17.4
	c0.8-1.3,1.7-2.6,2.8-3.7c0.7-0.7,1.7-1.2,2.7-1.4c0.9-0.1,1.9,0,2.7,0.4c1,0.5,1.9,1,2.9,1.6c1.8,0.9,3.2,2.6,3.7,4.6
	c0,2.2-0.6,4.4-1.9,6.3l-16.3,27.4L136.1,110.4L136.1,110.4z M175.4,24.6H40.1c-6.6-0.3-11.7-5.7-11.7-12.2c0-6.6,5.1-12,11.6-12.3
	h135.3c6.5,0.3,11.7,5.7,11.7,12.3C187,18.9,181.9,24.3,175.4,24.6L175.4,24.6L175.4,24.6z"/>
</svg>
