<?xml version="1.0" encoding="utf-8"?>
<!-- Generator: Adobe Illustrator 23.0.0, SVG Export Plug-In . SVG Version: 6.00 Build 0)  -->
<svg version="1.1" id="图层_1" xmlns="http://www.w3.org/2000/svg" xmlns:xlink="http://www.w3.org/1999/xlink" x="0px" y="0px"
	 viewBox="0 0 200 200" style="enable-background:new 0 0 200 200;" xml:space="preserve">
<path class="st0" d="M12.9,171.1c0.3-1.2,1.1-2.2,2.3-2.6l0.8-0.2c4.1-1.3,6.5-5.9,5.5-10.3l-0.2-0.8c-0.3-1.2,0-2.5,0.9-3.5
	c0,0,0.8-0.7,2.9-2c2.1-1.3,3.1-1.7,3.1-1.7c1.2-0.4,2.4,0,3.3,0.8l0.6,0.7c2.9,3.1,7.8,3.2,10.9,0.3c0.1-0.1,0.2-0.2,0.3-0.3
	l0.5-0.6c0.8-0.9,2.2-1.2,3.3-0.8c0,0,0.9,0.4,3.1,1.7c2.1,1.3,2.9,2,2.9,2c0.9,0.8,1.2,2.3,0.9,3.5l-0.2,0.8
	c-0.5,2.2-0.2,4.4,0.9,6.4c1,1.9,2.7,3.4,4.7,4l0.8,0.2c1.2,0.4,2.1,1.4,2.3,2.6c0,0,0.2,1,0.2,3.7c0,2.6-0.2,3.7-0.2,3.7
	c-0.2,1.2-1.1,2.2-2.3,2.6l-0.8,0.2c-4.1,1.3-6.6,5.8-5.6,10.3l0.2,0.8c0.3,1.2,0,2.5-0.9,3.5c0,0-0.8,0.7-2.9,2
	c-2.1,1.3-3.1,1.6-3.1,1.6c-1.2,0.4-2.4,0-3.3-0.8l-0.5-0.6c-3-3.1-7.8-3.2-10.9-0.2c-0.1,0.1-0.1,0.1-0.2,0.2l-0.5,0.6
	c-0.8,0.9-2.1,1.2-3.3,0.8c0,0-0.9-0.4-3.1-1.6c-2.1-1.3-2.9-2-2.9-2c-0.9-0.9-1.2-2.2-0.9-3.5l0.2-0.8c0.5-2.1,0.2-4.4-0.9-6.3
	c-1-1.9-2.7-3.3-4.7-4l-0.8-0.2c-1.2-0.4-2.1-1.4-2.3-2.6c0,0-0.2-1-0.2-3.7C12.7,172.2,12.9,171.1,12.9,171.1L12.9,171.1z
	 M37.5,181.1c3.5,0,6.2-2.8,6.2-6.3s-2.8-6.2-6.3-6.2s-6.2,2.8-6.2,6.3C31.3,178.3,34.1,181.1,37.5,181.1z"/>
<path class="st0" d="M75,162.4v31.2c0,3.4,2.8,6.2,6.2,6.2h88.6c9.7,0,17.6-8,17.6-17.8V17.8C187.4,8,179.6,0,169.9,0H30.1
	c-9.7,0-17.6,8-17.6,17.8v113.3c0,3.4,2.8,6.2,6.2,6.2h0H50C63.8,137.4,75,148.6,75,162.4z M143.7,37.5c3.4,0,6.2,2.8,6.2,6.2
	c0,3.4-2.8,6.2-6.2,6.2H56.3c-3.4,0-6.2-2.8-6.2-6.2s2.8-6.2,6.2-6.2c0,0,0,0,0,0H143.7z M143.7,62.4c3.4,0,6.2,2.8,6.2,6.2
	c0,3.4-2.8,6.2-6.2,6.2H56.3c-3.4,0-6.2-2.8-6.2-6.2s2.8-6.2,6.2-6.2c0,0,0,0,0,0H143.7z M143.7,87.4c3.4,0,6.2,2.8,6.2,6.2
	c0,3.4-2.8,6.2-6.2,6.2h-37.5c-3.4,0-6.2-2.8-6.2-6.2c0-3.4,2.8-6.2,6.2-6.2H143.7z"/>
</svg>
