<?xml version="1.0" encoding="utf-8"?>
<!-- Generator: Adobe Illustrator 23.0.0, SVG Export Plug-In . SVG Version: 6.00 Build 0)  -->
<svg version="1.1" id="图层_1" xmlns="http://www.w3.org/2000/svg" xmlns:xlink="http://www.w3.org/1999/xlink" x="0px" y="0px"
	 viewBox="0 0 200 200" style="enable-background:new 0 0 200 200;" xml:space="preserve">
<path class="st0" d="M177.6,196.9H22.3c-14.1,0-24-13.8-21.8-30.2L19.4,33.7c1.6-10.4,10.9-18.2,22.1-18.3h117.1
	c11.1,0.2,20.4,8,22,18.4l18.9,132.9C201.7,183,192,196.9,177.6,196.9z M149.7,39c-5.1,0.1-9.6,3-11.5,7.4
	c-1.9,4.4-0.8,9.5,2.9,12.9c-2.7,19.8-20,34.9-41,35.8c-21.1-0.9-38.5-16-41.2-35.8c4-3.5,5.1-9.3,2.6-13.9c-2.5-4.7-8-7.3-13.4-6.3
	c-5.4,0.9-9.6,5-10.3,10.1c-0.7,5.1,2.1,10.1,7.1,12.3c3.3,26.8,26.7,47.3,55.1,48.4c28.3-1.3,51.6-21.8,54.9-48.4
	c5.2-2.4,7.9-7.8,6.7-13.2S155.5,39.1,149.7,39L149.7,39L149.7,39z"/>
</svg>
