<?xml version="1.0" encoding="utf-8"?>
<!-- Generator: Adobe Illustrator 23.0.0, SVG Export Plug-In . SVG Version: 6.00 Build 0)  -->
<svg version="1.1" id="图层_1" xmlns="http://www.w3.org/2000/svg" xmlns:xlink="http://www.w3.org/1999/xlink" x="0px" y="0px"
	 viewBox="0 0 200 200" style="enable-background:new 0 0 200 200;" xml:space="preserve">
<path class="st0" d="M173.5,75.5l-1-0.3l-3.7-9.1l0.4-0.9c11.3-26.1,10.5-26.8,8.6-28.7l-15-14.9c-0.7-0.7-1.6-1-2.6-1.1
	c-0.8,0-3.4,0-25.6,10.3l-0.9,0.4l-9.1-3.8l-0.4-0.9C113.8,0,112.7,0,110.2,0H89c-2.6,0-3.8,0-13.4,26.4l-0.4,1l-9.1,3.8l-0.9-0.4
	c-15-6.5-23.8-9.7-26.1-9.7c-1,0-1.9,0.4-2.6,1l-15,15c-1.9,1.9-2.7,2.7,9.1,28.2l0.4,0.9l-3.7,9l-0.9,0.4C0,86.1,0,87.1,0,89.8V111
	c0,2.7,0,3.9,26.5,13.5l0.9,0.3l3.7,9l-0.4,0.9c-11.3,26.1-10.5,26.8-8.6,28.7l15,15c0.7,0.7,1.7,1,2.6,1.1c0.8,0,3.4,0,25.6-10.2
	l0.9-0.4l9.2,3.8l0.4,0.9C86.2,200,87.2,200,89.8,200H111c2.7,0,3.8,0,13.4-26.4l0.4-1l9.1-3.8l0.9,0.4c15,6.5,23.8,9.7,26,9.7
	c1,0,1.9-0.4,2.6-1l15.1-15c1.9-1.9,2.7-2.7-9.2-28.2l-0.4-1l3.7-9l0.9-0.4c26.5-10.5,26.5-11.5,26.5-14.2V89
	C200,86.2,200,85.1,173.5,75.5z M100,134.4c-19,0-34.4-15.4-34.4-34.4S81,65.6,100,65.6S134.3,81,134.4,100c0,0,0,0,0,0
	C134.3,119,119,134.4,100,134.4z"/>
</svg>
