<?xml version="1.0" encoding="utf-8"?>
<!-- Generator: Adobe Illustrator 23.0.0, SVG Export Plug-In . SVG Version: 6.00 Build 0)  -->
<svg version="1.1" id="图层_1" xmlns="http://www.w3.org/2000/svg" xmlns:xlink="http://www.w3.org/1999/xlink" x="0px" y="0px"
	 viewBox="0 0 200 200" style="enable-background:new 0 0 200 200;" xml:space="preserve">
<path class="st0" d="M184.6,46.4h-40.5c6-4.9,9.8-11.9,9.8-19.7C153.8,12,140.2,0,123.5,0c-9.9,0-18.2,4.3-23.5,12.2
	C94.7,4.3,86.4,0,76.5,0C59.8,0,46.2,12,46.2,26.8c0,7.8,3.7,14.7,9.8,19.7H15.4C6.9,46.4,0,52.8,0,60.7v8.9c0,1,0.9,1.8,1.9,1.8
	h196.2c1,0,1.9-0.8,1.9-1.8v-8.9C200,52.8,193.1,46.4,184.6,46.4z M123.5,12.5c8.9,0,16.2,6.4,16.2,14.3s-7.3,14.3-16.2,14.3h-16.2
	C107.3,19.7,114.6,12.5,123.5,12.5L123.5,12.5z M76.5,12.5c9,0,16.2,7.1,16.2,28.6H76.5c-8.9,0-16.2-6.4-16.2-14.3
	S67.5,12.5,76.5,12.5L76.5,12.5z M7.7,86.6v99.1c0,7.9,6.9,14.3,15.4,14.3h70.2V83H11.5C9.4,83,7.7,84.7,7.7,86.6z M188.5,83h-81.7
	v117h70.2c8.5,0,15.4-6.4,15.4-14.3V86.6C192.3,84.7,190.6,83,188.5,83L188.5,83z"/>
</svg>
